<svg xmlns="http://www.w3.org/2000/svg" viewBox="0 0 98.94 16.57"><defs><style>.cls-1{fill:#fff;}</style></defs><g id="Layer_2" data-name="Layer 2"><g id="svg2"><g id="g1780"><path id="path1782" class="cls-1" d="M97.65.36h.44V4h-.47a4.21,4.21,0,0,0-1.09-2.36A3.79,3.79,0,0,0,94.17.8a3.67,3.67,0,0,0-2,.64,2.34,2.34,0,0,0-.77,1.7A3.19,3.19,0,0,0,92,4.93,11.07,11.07,0,0,0,94.77,7,16.08,16.08,0,0,1,98.09,9.6a4.56,4.56,0,0,1,.85,2.52,4.88,4.88,0,0,1-1.3,3.14,4.89,4.89,0,0,1-3.14,1.31A8.93,8.93,0,0,1,91.79,16a5.26,5.26,0,0,0-.87-.24s-.38,0-.6.6h-.45V12.12h.45a4.33,4.33,0,0,0,1.14,2.8A4.29,4.29,0,0,0,94.09,16a3.93,3.93,0,0,0,2.28-.76,2.88,2.88,0,0,0,.85-2,3.14,3.14,0,0,0-.7-1.81,12.52,12.52,0,0,0-2.94-2.23,17.61,17.61,0,0,1-2.43-1.78,5.24,5.24,0,0,1-.91-1.43A5.47,5.47,0,0,1,90,4.23a4.42,4.42,0,0,1,1.18-2.91A4.74,4.74,0,0,1,94.19.2a7.88,7.88,0,0,1,2.26.41,4.27,4.27,0,0,0,.8.19s.19,0,.25-.08A1,1,0,0,0,97.65.36Z"/></g><g id="g1784"><path id="path1786" class="cls-1" d="M84.42,6.75a1.41,1.41,0,0,1,.91.38A1.43,1.43,0,0,1,85.7,8a1.45,1.45,0,0,1-.38.92,1.39,1.39,0,0,1-.9.39A1.42,1.42,0,0,1,83.5,9,1.46,1.46,0,0,1,83.12,8a1.41,1.41,0,0,1,.38-.91A1.46,1.46,0,0,1,84.42,6.75Z"/></g><g id="g1788"><path id="path1790" class="cls-1" d="M77.38,6.49h.46v3.79h-.46s-.26-1-.62-1.25a2.92,2.92,0,0,0-1.56-.26H71.33v5.59a1.34,1.34,0,0,0,.26.82,1.34,1.34,0,0,0,.88.24H75.2a11.37,11.37,0,0,0,2-.16,2.28,2.28,0,0,0,.94-.59,5.65,5.65,0,0,0,.82-1.4h.47l-.72,2.91H67.5v-.47s1,0,1.41-.53a3.71,3.71,0,0,0,.36-1.91V3.52a4.66,4.66,0,0,0-.38-1.95A1.67,1.67,0,0,0,67.5,1V.58H78.73V3.19h-.29a3.33,3.33,0,0,0-.69-1.48,3.26,3.26,0,0,0-1.93-.37H71.33V8h4.36A2.22,2.22,0,0,0,76.9,7.7,2.28,2.28,0,0,0,77.38,6.49Z"/></g><g id="g1792"><path id="path1794" class="cls-1" d="M62.59,6.75a1.41,1.41,0,0,1,.91.38,1.43,1.43,0,0,1,.37.91,1.45,1.45,0,0,1-.38.92,1.39,1.39,0,0,1-.9.39A1.42,1.42,0,0,1,61.67,9,1.46,1.46,0,0,1,61.29,8a1.41,1.41,0,0,1,.38-.91A1.46,1.46,0,0,1,62.59,6.75Z"/></g><g id="g1796"><path id="path1798" class="cls-1" d="M53.19.58h3.68V1a1.86,1.86,0,0,0-1.75,2.07s0,.17,0,.36l.79,9.61a5.66,5.66,0,0,0,.52,2,2,2,0,0,0,1.42.59v.47H52.25v-.47a2.41,2.41,0,0,0,1.25-.58,2.17,2.17,0,0,0,.37-1.34s0-.19,0-.42L53,3.3,47.7,16.18h-.41L42,3.3l-.88,9.61s0,.22,0,.42a2.45,2.45,0,0,0,2,2.38v.47H38.3v-.47A2.49,2.49,0,0,0,39.7,15a4.48,4.48,0,0,0,.6-2.19l.94-10.72a3.93,3.93,0,0,0-2-1.09V.58h3.94l5,12.27Z"/></g><g id="g1800"><path id="path1802" class="cls-1" d="M33.65,6.75a1.38,1.38,0,0,1,.9.38,1.42,1.42,0,0,1,.38.91,1.45,1.45,0,0,1-.38.92,1.39,1.39,0,0,1-.9.39A1.42,1.42,0,0,1,32.73,9,1.46,1.46,0,0,1,32.35,8a1.41,1.41,0,0,1,.38-.91A1.46,1.46,0,0,1,33.65,6.75Z"/></g><g id="g1804"><path id="path1806" class="cls-1" d="M28.94.58V1a2,2,0,0,0-1.38.54,3.58,3.58,0,0,0-.39,1.94v9.72a4.54,4.54,0,0,0,.39,1.94,1.7,1.7,0,0,0,1.38.53v.47H23.33v-.47s1,0,1.4-.53a3.65,3.65,0,0,0,.37-1.94V3.52a4.81,4.81,0,0,0-.37-2A1.67,1.67,0,0,0,23.33,1V.58Z"/></g><g id="g1808"><path id="path1810" class="cls-1" d="M18.63,6.75a1.38,1.38,0,0,1,.9.38A1.43,1.43,0,0,1,19.9,8a1.45,1.45,0,0,1-.38.92,1.39,1.39,0,0,1-.89.39A1.41,1.41,0,0,1,17.71,9,1.44,1.44,0,0,1,17.32,8a1.39,1.39,0,0,1,.39-.91A1.43,1.43,0,0,1,18.63,6.75Z"/></g><g id="g1812"><path id="path1814" class="cls-1" d="M10.34,1.34H8v12a4.83,4.83,0,0,0,.34,1.9,1.63,1.63,0,0,0,1.35.49v.47H4.13v-.47s1,0,1.41-.56a3.68,3.68,0,0,0,.38-1.91V1.34H3.66a5.26,5.26,0,0,0-2.36.52A2.35,2.35,0,0,0,.47,3.58H0V0H.47A3.55,3.55,0,0,0,2.81.58H11A5.08,5.08,0,0,0,13.45,0H14V3.58h-.31a3.28,3.28,0,0,0-1-1.77A4.54,4.54,0,0,0,10.34,1.34Z"/></g></g></g></svg>