<svg xmlns="http://www.w3.org/2000/svg" viewBox="0 0 98.94 16.57"><defs><style>.cls-1{fill:#363636;}</style></defs><g id="Layer_2" data-name="Layer 2"><g id="Layer_1-2" data-name="Layer 1"><g id="Layer_2-2" data-name="Layer 2"><g id="svg2"><g id="g1780"><path id="path1782" class="cls-1" d="M97.65.36h.44V4h-.47a4.26,4.26,0,0,0-1.09-2.36A3.76,3.76,0,0,0,94.17.8a3.68,3.68,0,0,0-2,.64,2.35,2.35,0,0,0-.77,1.7A3.13,3.13,0,0,0,92,4.93,11,11,0,0,0,94.77,7a16.08,16.08,0,0,1,3.32,2.6,4.56,4.56,0,0,1,.85,2.52,4.84,4.84,0,0,1-1.3,3.14,4.91,4.91,0,0,1-3.14,1.31A9,9,0,0,1,91.79,16a5.08,5.08,0,0,0-.87-.24s-.38,0-.6.6h-.45V12.12h.45a4.35,4.35,0,0,0,1.14,2.8A4.29,4.29,0,0,0,94.09,16a3.9,3.9,0,0,0,2.28-.76,2.89,2.89,0,0,0,.85-2,3.15,3.15,0,0,0-.7-1.81A12.54,12.54,0,0,0,93.58,9.2a17.61,17.61,0,0,1-2.43-1.78A5.11,5.11,0,0,1,90.24,6,5.24,5.24,0,0,1,90,4.23a4.38,4.38,0,0,1,1.18-2.91,4.74,4.74,0,0,1,3-1.12,7.91,7.91,0,0,1,2.26.41,4.43,4.43,0,0,0,.8.19s.19,0,.25-.08A1.14,1.14,0,0,0,97.65.36Z"/></g><g id="g1784"><path id="path1786" class="cls-1" d="M84.42,6.75a1.41,1.41,0,0,1,.91.38A1.42,1.42,0,0,1,85.7,8a1.43,1.43,0,0,1-.38.92,1.37,1.37,0,0,1-.9.39A1.4,1.4,0,0,1,83.5,9a1.47,1.47,0,0,1-.38-1,1.41,1.41,0,0,1,.38-.91A1.41,1.41,0,0,1,84.42,6.75Z"/></g><g id="g1788"><path id="path1790" class="cls-1" d="M77.38,6.49h.46v3.79h-.46s-.26-1-.62-1.25a2.9,2.9,0,0,0-1.56-.26H71.33v5.59a1.36,1.36,0,0,0,.26.82,1.33,1.33,0,0,0,.88.24H75.2a11.17,11.17,0,0,0,2-.16,2.31,2.31,0,0,0,.94-.59,5.47,5.47,0,0,0,.82-1.4h.47l-.72,2.91H67.5v-.47a2.05,2.05,0,0,0,1.41-.53,3.69,3.69,0,0,0,.36-1.91V3.52a4.68,4.68,0,0,0-.38-1.95A1.67,1.67,0,0,0,67.5,1V.58H78.73V3.19h-.29a3.31,3.31,0,0,0-.69-1.48,3.23,3.23,0,0,0-1.93-.37H71.33V8h4.36a2.25,2.25,0,0,0,1.21-.3A2.33,2.33,0,0,0,77.38,6.49Z"/></g><g id="g1792"><path id="path1794" class="cls-1" d="M62.59,6.75A1.28,1.28,0,0,1,63.87,8a1.43,1.43,0,0,1-.38.92,1.37,1.37,0,0,1-.9.39A1.42,1.42,0,0,1,61.67,9a1.47,1.47,0,0,1-.38-1,1.41,1.41,0,0,1,.38-.91A1.41,1.41,0,0,1,62.59,6.75Z"/></g><g id="g1796"><path id="path1798" class="cls-1" d="M53.19.58h3.68V1a1.86,1.86,0,0,0-1.76,2s0,.07,0,.11v.36L55.91,13a5.8,5.8,0,0,0,.52,2,2,2,0,0,0,1.42.59v.47h-5.6v-.47a2.45,2.45,0,0,0,1.25-.58,2.12,2.12,0,0,0,.37-1.34v-.42L53,3.3,47.7,16.18h-.41L42,3.3l-.88,9.61v.42a2.44,2.44,0,0,0,2,2.38v.47H38.3v-.47A2.51,2.51,0,0,0,39.7,15a4.56,4.56,0,0,0,.6-2.19l.94-10.72a4,4,0,0,0-2-1.09V.58h3.94l5,12.27Z"/></g><g id="g1800"><path id="path1802" class="cls-1" d="M33.65,6.75a1.36,1.36,0,0,1,.9.38,1.41,1.41,0,0,1,.38.91,1.43,1.43,0,0,1-.38.92,1.37,1.37,0,0,1-.9.39A1.42,1.42,0,0,1,32.73,9a1.47,1.47,0,0,1-.38-1,1.41,1.41,0,0,1,.38-.91A1.41,1.41,0,0,1,33.65,6.75Z"/></g><g id="g1804"><path id="path1806" class="cls-1" d="M28.94.58V1a2,2,0,0,0-1.38.54,3.63,3.63,0,0,0-.39,1.94V13.2a4.61,4.61,0,0,0,.39,1.94,1.71,1.71,0,0,0,1.38.53v.47H23.33v-.47a2,2,0,0,0,1.4-.53,3.61,3.61,0,0,0,.37-1.94V3.52a4.87,4.87,0,0,0-.37-2A1.68,1.68,0,0,0,23.33,1V.58Z"/></g><g id="g1808"><path id="path1810" class="cls-1" d="M18.63,6.75a1.36,1.36,0,0,1,.9.38A1.42,1.42,0,0,1,19.9,8a1.32,1.32,0,0,1-1.27,1.31A1.4,1.4,0,0,1,17.71,9a1.48,1.48,0,0,1-.39-1,1.37,1.37,0,0,1,.39-.91A1.41,1.41,0,0,1,18.63,6.75Z"/></g><g id="g1812"><path id="path1814" class="cls-1" d="M10.34,1.34H8v12a4.74,4.74,0,0,0,.34,1.9,1.66,1.66,0,0,0,1.35.49v.47H4.13v-.47a2,2,0,0,0,1.41-.56,3.61,3.61,0,0,0,.38-1.91V1.34H3.66a5.35,5.35,0,0,0-2.36.52A2.35,2.35,0,0,0,.47,3.58H0V0H.47A3.53,3.53,0,0,0,2.81.58H11A5,5,0,0,0,13.45,0H14V3.58h-.31a3.32,3.32,0,0,0-1-1.77A4.56,4.56,0,0,0,10.34,1.34Z"/></g></g></g></g></g></svg>